<svg width="218" height="52" viewBox="0 0 218 52" fill="none" xmlns="http://www.w3.org/2000/svg">
<path d="M11.232 42.504C7.632 42.504 4.104 41.136 1.512 38.652L4.572 34.98C6.444 36.744 9 37.896 11.34 37.896C14.112 37.896 15.552 36.708 15.552 34.872C15.552 32.892 13.932 32.244 11.556 31.236L7.992 29.724C5.328 28.644 2.592 26.448 2.592 22.596C2.592 18.24 6.444 14.892 11.808 14.892C14.904 14.892 18 16.116 20.16 18.312L17.496 21.66C15.768 20.256 14.004 19.464 11.808 19.464C9.468 19.464 7.992 20.508 7.992 22.236C7.992 24.144 9.9 24.864 12.168 25.764L15.66 27.204C18.864 28.536 20.988 30.624 20.988 34.44C20.988 38.796 17.352 42.504 11.232 42.504ZM33.7328 42.504C28.6568 42.504 24.0488 38.616 24.0488 31.956C24.0488 25.26 28.6568 21.372 33.7328 21.372C38.7728 21.372 43.3808 25.26 43.3808 31.956C43.3808 38.616 38.7728 42.504 33.7328 42.504ZM33.7328 38.22C36.4688 38.22 37.9808 35.736 37.9808 31.956C37.9808 28.14 36.4688 25.692 33.7328 25.692C30.9608 25.692 29.4488 28.14 29.4488 31.956C29.4488 35.736 30.9608 38.22 33.7328 38.22ZM47.844 42V21.876H52.128L52.56 24.54H52.668C54.36 22.812 56.232 21.372 58.824 21.372C61.74 21.372 63.432 22.632 64.368 24.864C66.24 22.956 68.184 21.372 70.812 21.372C75.096 21.372 77.04 24.396 77.04 29.436V42H71.748V30.12C71.748 26.952 70.884 25.908 68.94 25.908C67.788 25.908 66.528 26.628 65.088 28.14V42H59.796V30.12C59.796 26.952 58.896 25.908 56.952 25.908C55.836 25.908 54.504 26.628 53.136 28.14V42H47.844ZM87.4752 42.504C83.8752 42.504 81.5352 39.984 81.5352 36.528C81.5352 32.244 85.0272 29.976 93.1272 29.076C93.0192 27.096 92.1912 25.62 89.7072 25.62C87.8352 25.62 85.9992 26.412 84.1632 27.528L82.2552 24C84.6312 22.56 87.4752 21.372 90.6792 21.372C95.7912 21.372 98.4192 24.396 98.4192 30.264V42H94.0992L93.7032 39.876H93.5592C91.7952 41.388 89.7792 42.504 87.4752 42.504ZM89.2032 38.364C90.7152 38.364 91.8312 37.68 93.1272 36.42V32.352C88.1952 32.964 86.5752 34.296 86.5752 36.132C86.5752 37.68 87.6552 38.364 89.2032 38.364ZM103.813 42V13.308H108.997V30.516H109.177L116.017 21.876H121.849L114.937 30.156L122.461 42H116.737L111.841 33.648L108.997 36.924V42H103.813ZM125.539 42V21.876H130.831V42H125.539ZM128.167 18.6C126.331 18.6 125.107 17.448 125.107 15.684C125.107 13.956 126.331 12.84 128.167 12.84C130.003 12.84 131.263 13.956 131.263 15.684C131.263 17.448 130.003 18.6 128.167 18.6ZM136.473 42V21.876H140.757L141.189 24.54H141.297C142.989 22.812 144.861 21.372 147.453 21.372C150.369 21.372 152.061 22.632 152.997 24.864C154.869 22.956 156.813 21.372 159.441 21.372C163.725 21.372 165.669 24.396 165.669 29.436V42H160.377V30.12C160.377 26.952 159.513 25.908 157.569 25.908C156.417 25.908 155.157 26.628 153.717 28.14V42H148.425V30.12C148.425 26.952 147.525 25.908 145.581 25.908C144.465 25.908 143.133 26.628 141.765 28.14V42H136.473Z" fill="#001858"/>
<path d="M173.916 46.252C172.962 46.252 172.278 45.514 172.278 44.524C172.278 43.534 172.962 42.814 173.916 42.814C174.852 42.814 175.572 43.534 175.572 44.524C175.572 45.514 174.852 46.252 173.916 46.252ZM183.316 46.252C182.416 46.252 181.444 45.784 180.634 44.938H180.562L180.346 46H178.276V31.654H180.922V35.272L180.832 36.874C181.642 36.172 182.632 35.686 183.64 35.686C186.106 35.686 187.6 37.702 187.6 40.798C187.6 44.272 185.53 46.252 183.316 46.252ZM182.74 44.074C183.946 44.074 184.882 43.03 184.882 40.852C184.882 38.908 184.288 37.846 182.884 37.846C182.218 37.846 181.588 38.188 180.922 38.89V43.336C181.534 43.894 182.2 44.074 182.74 44.074ZM192.344 46.252C190.49 46.252 189.86 45.046 189.86 43.174V31.654H192.506V43.282C192.506 43.912 192.776 44.11 193.028 44.11C193.118 44.11 193.189 44.11 193.37 44.074L193.694 46.036C193.388 46.144 192.974 46.252 192.344 46.252ZM199.749 46.252C197.211 46.252 194.907 44.308 194.907 40.978C194.907 37.63 197.211 35.686 199.749 35.686C202.269 35.686 204.573 37.63 204.573 40.978C204.573 44.308 202.269 46.252 199.749 46.252ZM199.749 44.11C201.117 44.11 201.873 42.868 201.873 40.978C201.873 39.07 201.117 37.846 199.749 37.846C198.363 37.846 197.607 39.07 197.607 40.978C197.607 42.868 198.363 44.11 199.749 44.11ZM210.333 50.374C207.975 50.374 206.139 49.564 206.139 47.8C206.139 46.954 206.643 46.216 207.579 45.712V45.622C207.057 45.28 206.661 44.74 206.661 43.912C206.661 43.156 207.165 42.472 207.795 42.04V41.968C207.093 41.464 206.427 40.51 206.427 39.322C206.427 36.946 208.371 35.686 210.495 35.686C211.071 35.686 211.611 35.776 212.025 35.938H215.661V37.882H213.933C214.203 38.224 214.401 38.782 214.401 39.394C214.401 41.68 212.673 42.814 210.495 42.814C210.099 42.814 209.649 42.742 209.199 42.58C208.929 42.832 208.767 43.048 208.767 43.462C208.767 43.984 209.181 44.29 210.351 44.29H212.079C214.509 44.29 215.841 45.028 215.841 46.81C215.841 48.844 213.699 50.374 210.333 50.374ZM210.495 41.194C211.377 41.194 212.079 40.51 212.079 39.322C212.079 38.134 211.395 37.486 210.495 37.486C209.613 37.486 208.911 38.134 208.911 39.322C208.911 40.51 209.613 41.194 210.495 41.194ZM210.747 48.7C212.259 48.7 213.285 48.034 213.285 47.26C213.285 46.54 212.691 46.342 211.611 46.342H210.387C209.775 46.342 209.361 46.306 209.001 46.198C208.533 46.576 208.335 46.972 208.335 47.386C208.335 48.232 209.271 48.7 210.747 48.7Z" fill="#6246EA"/>
</svg>
